<svg width="324" height="82" viewBox="0 0 324 82" fill="none" xmlns="http://www.w3.org/2000/svg">
<path d="M56.163 75.569C48.1696 74.6469 36.9033 68.0632 36.9033 68.0632L41.7182 55.7666L60.9779 62.4739L78.529 61.5157L74.8013 73.3332C74.8013 73.3332 63.4454 76.409 56.163 75.569Z" fill="#9D9D9D" stroke="#9D9D9D" stroke-width="0.867236"/>
<path d="M8.71878 32.3517C14.8408 22.9564 31.2661 14.5723 31.2661 14.5723L60.3181 21.0933C60.3181 21.0933 42.4467 67.0189 33.4341 77.4509C24.0653 88.2951 4.45018 73.2076 1.49906 59.1859C-0.271666 50.7726 2.7944 41.4437 8.71878 32.3517Z" fill="#9D9D9D" stroke="#9D9D9D" stroke-width="0.867236"/>
<path d="M64.6724 2.19585C50.5786 0.166791 32.5698 14.5728 32.5698 14.5728C32.5698 14.5728 43.179 15.9602 49.0129 23.017C57.2201 32.9446 43.3185 57.8255 43.3185 57.8255C43.3185 57.8255 41.5785 62.2753 66.8869 63.5468C79.0821 64.1595 105.64 55.4414 105.64 55.4414C105.64 55.4414 123.618 30.2661 113.707 20.3155C105.449 12.0236 83.8119 20.3155 83.8119 20.3155C83.8119 20.3155 76.4284 3.88832 64.6724 2.19585Z" fill="#373737" stroke="#9D9D9D" stroke-width="3"/>
<path d="M100.978 30.5665C96.8898 26.3893 98.9145 16.7402 98.9145 16.7402C98.9145 16.7402 109.647 15.8003 114.091 20.2095C119.386 25.4636 115.391 35.8205 115.391 35.8205C115.391 35.8205 105.336 35.0204 100.978 30.5665Z" fill="#9D9D9D"/>
<ellipse cx="68.0965" cy="25.3599" rx="8.02964" ry="13.7837" fill="#9D9D9D"/>
<path d="M152.375 55.0762V28.2657H166.327C168.255 28.2657 169.858 28.6305 171.135 29.36C172.437 30.0635 173.414 31.0666 174.066 32.3694C174.743 33.6461 175.082 35.1703 175.082 36.942C175.082 38.7137 174.73 40.264 174.027 41.5928C173.349 42.8955 172.346 43.9117 171.017 44.6412C169.688 45.3707 168.06 45.7355 166.132 45.7355H158.198V55.0762H152.375ZM158.198 40.9675H165.35C166.575 40.9675 167.513 40.6157 168.164 39.9123C168.842 39.2088 169.18 38.2317 169.18 36.9811C169.18 36.1213 169.037 35.4048 168.751 34.8316C168.464 34.2584 168.034 33.8154 167.461 33.5028C166.914 33.1901 166.21 33.0338 165.35 33.0338H158.198V40.9675ZM187.391 55.5452C185.124 55.5452 183.222 55.1674 181.685 54.4118C180.147 53.6301 178.988 52.4446 178.206 50.8553C177.425 49.2659 177.034 47.2467 177.034 44.7975C177.034 42.3223 177.425 40.3031 178.206 38.7398C178.988 37.1504 180.134 35.978 181.646 35.2224C183.183 34.4407 185.059 34.0499 187.273 34.0499C189.358 34.0499 191.116 34.4277 192.549 35.1833C193.982 35.9128 195.064 37.0593 195.793 38.6225C196.523 40.1598 196.888 42.153 196.888 44.6021V46.0091H182.544C182.597 47.2076 182.779 48.2237 183.092 49.0575C183.43 49.8913 183.938 50.5166 184.616 50.9335C185.319 51.3243 186.244 51.5197 187.391 51.5197C188.016 51.5197 188.576 51.4415 189.071 51.2852C189.592 51.1289 190.035 50.8944 190.4 50.5817C190.765 50.2691 191.051 49.8782 191.26 49.4092C191.468 48.9403 191.572 48.4061 191.572 47.8069H196.888C196.888 49.1096 196.653 50.243 196.184 51.207C195.715 52.1711 195.064 52.9788 194.23 53.6301C193.396 54.2554 192.393 54.7375 191.221 55.0762C190.074 55.3888 188.798 55.5452 187.391 55.5452ZM182.623 42.5698H191.299C191.299 41.7882 191.195 41.1108 190.986 40.5376C190.804 39.9644 190.543 39.4954 190.205 39.1306C189.866 38.7658 189.449 38.5053 188.954 38.349C188.485 38.1666 187.951 38.0754 187.352 38.0754C186.361 38.0754 185.528 38.2447 184.85 38.5835C184.199 38.8961 183.691 39.3912 183.326 40.0686C182.987 40.72 182.753 41.5537 182.623 42.5698ZM207.009 55.5452C205.707 55.5452 204.651 55.3107 203.844 54.8417C203.036 54.3727 202.45 53.7474 202.085 52.9657C201.72 52.158 201.538 51.2722 201.538 50.3081V38.7007H198.997V34.5189H201.733L202.749 28.6566H206.97V34.5189H210.722V38.7007H206.97V49.4092C206.97 50.0346 207.114 50.5166 207.4 50.8553C207.687 51.1679 208.156 51.3243 208.807 51.3243H210.722V54.9198C210.409 55.0241 210.045 55.1153 209.628 55.1934C209.211 55.2976 208.768 55.3758 208.299 55.4279C207.83 55.5061 207.4 55.5452 207.009 55.5452ZM215.287 55.0762V28.2657H228.77C230.333 28.2657 231.662 28.5263 232.757 29.0474C233.877 29.5685 234.737 30.311 235.336 31.2751C235.935 32.2391 236.235 33.3855 236.235 34.7143C236.235 35.7305 236.052 36.6684 235.688 37.5282C235.349 38.388 234.854 39.1176 234.203 39.7168C233.577 40.2901 232.835 40.72 231.975 41.0066V41.1629C232.887 41.3713 233.721 41.7361 234.476 42.2572C235.232 42.7783 235.831 43.4948 236.274 44.4067C236.743 45.2926 236.977 46.426 236.977 47.8069C236.977 49.5786 236.613 50.9986 235.883 52.0668C235.18 53.1351 234.216 53.9037 232.991 54.3727C231.766 54.8417 230.36 55.0762 228.77 55.0762H215.287ZM218.374 52.4186H228.966C230.425 52.4186 231.597 52.0538 232.483 51.3243C233.395 50.5687 233.851 49.305 233.851 47.5333C233.851 46.4129 233.655 45.488 233.265 44.7585C232.874 44.0289 232.301 43.4948 231.545 43.1561C230.789 42.8174 229.838 42.648 228.692 42.648H218.374V52.4186ZM218.374 39.9904H228.301C229.239 39.9904 230.06 39.808 230.763 39.4433C231.493 39.0524 232.066 38.5053 232.483 37.8018C232.9 37.0983 233.108 36.2906 233.108 35.3787C233.108 33.8675 232.691 32.7472 231.858 32.0176C231.05 31.2881 229.969 30.9233 228.614 30.9233H218.374V39.9904ZM247.972 55.5452C246.018 55.5452 244.441 55.0501 243.243 54.06C242.044 53.0699 241.445 51.3373 241.445 48.8621V34.5189H244.259V48.5885C244.259 49.5004 244.376 50.243 244.611 50.8162C244.845 51.3894 245.171 51.8454 245.588 52.1841C246.005 52.4967 246.487 52.7182 247.034 52.8485C247.607 52.9788 248.219 53.0439 248.871 53.0439C249.913 53.0439 250.89 52.7964 251.802 52.3013C252.74 51.7802 253.495 51.0507 254.069 50.1127C254.642 49.1487 254.928 48.0023 254.928 46.6735V34.5189H257.742V55.0762H255.554L255.241 51.8323H254.967C254.394 52.7703 253.743 53.5129 253.013 54.06C252.31 54.5811 251.528 54.9589 250.668 55.1934C249.835 55.4279 248.936 55.5452 247.972 55.5452ZM270.199 55.5452C268.506 55.5452 267.047 55.1674 265.822 54.4118C264.597 53.6562 263.659 52.4837 263.008 50.8944C262.383 49.279 262.07 47.1816 262.07 44.6021C262.07 42.179 262.396 40.1989 263.047 38.6616C263.699 37.0983 264.623 35.9389 265.822 35.1833C267.047 34.4277 268.48 34.0499 270.121 34.0499C271.007 34.0499 271.841 34.1541 272.622 34.3626C273.404 34.571 274.107 34.9097 274.733 35.3787C275.358 35.8216 275.905 36.4209 276.374 37.1765H276.609V26.8197H279.423V55.0762H277.234L276.921 52.0668H276.648C275.918 53.2393 274.98 54.1121 273.834 54.6853C272.713 55.2586 271.502 55.5452 270.199 55.5452ZM270.668 53.083C272.075 53.083 273.209 52.7703 274.068 52.145C274.954 51.5197 275.593 50.6208 275.983 49.4483C276.4 48.2759 276.609 46.8428 276.609 45.1493V44.4458C276.609 42.8304 276.439 41.5016 276.101 40.4594C275.788 39.4172 275.345 38.6095 274.772 38.0363C274.225 37.4631 273.612 37.0723 272.935 36.8638C272.258 36.6293 271.567 36.5121 270.864 36.5121C269.561 36.5121 268.467 36.7857 267.581 37.3328C266.721 37.8539 266.069 38.6877 265.627 39.8341C265.21 40.9805 265.001 42.4787 265.001 44.3286V45.3056C265.001 47.2337 265.236 48.7709 265.705 49.9173C266.174 51.0377 266.825 51.8454 267.659 52.3404C268.519 52.8355 269.522 53.083 270.668 53.083ZM291.878 55.5452C290.184 55.5452 288.725 55.1674 287.5 54.4118C286.276 53.6562 285.338 52.4837 284.686 50.8944C284.061 49.279 283.749 47.1816 283.749 44.6021C283.749 42.179 284.074 40.1989 284.726 38.6616C285.377 37.0983 286.302 35.9389 287.5 35.1833C288.725 34.4277 290.158 34.0499 291.799 34.0499C292.685 34.0499 293.519 34.1541 294.301 34.3626C295.082 34.571 295.786 34.9097 296.411 35.3787C297.036 35.8216 297.584 36.4209 298.053 37.1765H298.287V26.8197H301.101V55.0762H298.912L298.6 52.0668H298.326C297.597 53.2393 296.659 54.1121 295.512 54.6853C294.392 55.2586 293.18 55.5452 291.878 55.5452ZM292.347 53.083C293.754 53.083 294.887 52.7703 295.747 52.145C296.633 51.5197 297.271 50.6208 297.662 49.4483C298.079 48.2759 298.287 46.8428 298.287 45.1493V44.4458C298.287 42.8304 298.118 41.5016 297.779 40.4594C297.466 39.4172 297.023 38.6095 296.45 38.0363C295.903 37.4631 295.291 37.0723 294.613 36.8638C293.936 36.6293 293.246 36.5121 292.542 36.5121C291.239 36.5121 290.145 36.7857 289.259 37.3328C288.399 37.8539 287.748 38.6877 287.305 39.8341C286.888 40.9805 286.68 42.4787 286.68 44.3286V45.3056C286.68 47.2337 286.914 48.7709 287.383 49.9173C287.852 51.0377 288.504 51.8454 289.337 52.3404C290.197 52.8355 291.2 53.083 292.347 53.083ZM307.967 62.1891C307.472 62.1891 307.029 62.1501 306.639 62.0719C306.274 62.0198 305.974 61.9807 305.74 61.9546V59.8442H307.264C307.941 59.8442 308.593 59.727 309.218 59.4925C309.843 59.258 310.429 58.789 310.977 58.0855C311.524 57.4081 312.019 56.405 312.462 55.0762L304.489 34.5189H307.459L311.68 45.4619C311.889 45.957 312.11 46.5823 312.345 47.3379C312.605 48.0674 312.866 48.823 313.126 49.6047C313.413 50.3602 313.647 51.0377 313.83 51.6369H314.064C314.168 51.2201 314.299 50.738 314.455 50.1909C314.637 49.6437 314.82 49.0836 315.002 48.5104C315.184 47.9371 315.354 47.39 315.51 46.8689C315.693 46.3478 315.849 45.8918 315.979 45.501L319.614 34.5189H322.467L315.432 54.7244C315.041 55.8708 314.624 56.9 314.181 57.8119C313.738 58.7238 313.23 59.5055 312.657 60.1569C312.11 60.8082 311.446 61.3033 310.664 61.642C309.908 62.0068 309.009 62.1891 307.967 62.1891Z" fill="#9D9D9D"/>
</svg>
