<svg width="507" height="350" viewBox="0 0 507 350" fill="none" xmlns="http://www.w3.org/2000/svg">
<path d="M240.118 323.89C205.613 319.906 156.98 291.46 156.98 291.46L177.765 238.331L260.903 267.31L336.665 263.17L320.574 314.23C320.574 314.23 271.554 327.52 240.118 323.89Z" fill="black" stroke="black" stroke-width="3.74728"/>
<path d="M35.3195 137.155C61.7464 96.5611 132.649 60.3359 132.649 60.3359L258.057 88.5111C258.057 88.5111 180.912 286.94 142.008 332.013C101.566 378.867 16.8933 313.679 4.1543 253.096C-3.48937 216.745 9.74585 176.438 35.3195 137.155Z" fill="black" stroke="black" stroke-width="3.74728"/>
<path d="M276.84 6.8462C216.002 -1.92067 138.264 60.3227 138.264 60.3227C138.264 60.3227 184.06 66.3171 209.243 96.8072C244.671 139.701 184.662 247.203 184.662 247.203C184.662 247.203 177.151 266.429 286.399 271.923C339.042 274.57 453.686 236.902 453.686 236.902C453.686 236.902 531.291 128.128 488.509 85.135C452.858 49.3086 359.459 85.135 359.459 85.135C359.459 85.135 327.587 14.1588 276.84 6.8462Z" fill="#F5F5F5" stroke="black" stroke-width="11.2418"/>
<path d="M433.543 129.443C415.897 111.394 424.637 69.7042 424.637 69.7042C424.637 69.7042 470.965 65.643 490.149 84.6938C513.007 107.395 495.762 152.144 495.762 152.144C495.762 152.144 452.359 148.686 433.543 129.443Z" fill="black"/>
<ellipse cx="291.747" cy="107.176" rx="26.204" ry="44.9672" fill="black"/>
</svg>
