<svg width="101" height="26" viewBox="0 0 101 26" fill="none" xmlns="http://www.w3.org/2000/svg">
<path d="M17.937 23.4381C15.4827 23.155 12.0234 21.1335 12.0234 21.1335L13.5018 17.3579L19.4154 19.4173L24.8044 19.1231L23.6598 22.7516C23.6598 22.7516 20.173 23.6961 17.937 23.4381Z" fill="#373737" stroke="#373737" stroke-width="0.26628"/>
<path d="M3.37001 10.1681C5.24975 7.2833 10.2931 4.70898 10.2931 4.70898L19.2133 6.71123C19.2133 6.71123 13.726 20.8124 10.9587 24.0155C8.08209 27.3452 2.05936 22.7127 1.15324 18.4074C0.609542 15.8241 1.55096 12.9597 3.37001 10.1681Z" fill="#373737" stroke="#373737" stroke-width="0.26628"/>
<path d="M20.5503 0.908767C16.2229 0.285756 10.6934 4.70904 10.6934 4.70904C10.6934 4.70904 13.9508 5.13502 15.7421 7.30179C18.2621 10.35 13.9937 17.9895 13.9937 17.9895C13.9937 17.9895 13.4594 19.3558 21.2302 19.7463C24.9747 19.9344 33.1293 17.2575 33.1293 17.2575C33.1293 17.2575 38.6493 9.52759 35.6062 6.47231C33.0704 3.92633 26.427 6.47231 26.427 6.47231C26.427 6.47231 24.1599 1.42843 20.5503 0.908767Z" fill="#F5F5F5" stroke="#373737" stroke-width="1.10399"/>
<path d="M31.6976 9.61969C30.4424 8.33711 31.0641 5.37442 31.0641 5.37442C31.0641 5.37442 34.3594 5.08581 35.7239 6.43965C37.3499 8.05287 36.1232 11.2329 36.1232 11.2329C36.1232 11.2329 33.0359 10.9872 31.6976 9.61969Z" fill="#373737"/>
<ellipse cx="21.6022" cy="8.02078" rx="2.46546" ry="4.23221" fill="#373737"/>
<path d="M47.4784 17.5V9.268H51.7624C52.3544 9.268 52.8464 9.38 53.2384 9.604C53.6384 9.82 53.9384 10.128 54.1384 10.528C54.3464 10.92 54.4504 11.388 54.4504 11.932C54.4504 12.476 54.3424 12.952 54.1264 13.36C53.9184 13.76 53.6104 14.072 53.2024 14.296C52.7944 14.52 52.2944 14.632 51.7024 14.632H49.2664V17.5H47.4784ZM49.2664 13.168H51.4624C51.8384 13.168 52.1264 13.06 52.3264 12.844C52.5344 12.628 52.6384 12.328 52.6384 11.944C52.6384 11.68 52.5944 11.46 52.5064 11.284C52.4184 11.108 52.2864 10.972 52.1104 10.876C51.9424 10.78 51.7264 10.732 51.4624 10.732H49.2664V13.168ZM58.2298 17.644C57.5338 17.644 56.9498 17.528 56.4778 17.296C56.0058 17.056 55.6498 16.692 55.4098 16.204C55.1698 15.716 55.0498 15.096 55.0498 14.344C55.0498 13.584 55.1698 12.964 55.4098 12.484C55.6498 11.996 56.0018 11.636 56.4658 11.404C56.9378 11.164 57.5138 11.044 58.1938 11.044C58.8338 11.044 59.3738 11.16 59.8138 11.392C60.2538 11.616 60.5858 11.968 60.8098 12.448C61.0338 12.92 61.1458 13.532 61.1458 14.284V14.716H56.7418C56.7578 15.084 56.8138 15.396 56.9098 15.652C57.0138 15.908 57.1698 16.1 57.3778 16.228C57.5938 16.348 57.8778 16.408 58.2298 16.408C58.4218 16.408 58.5938 16.384 58.7458 16.336C58.9058 16.288 59.0418 16.216 59.1538 16.12C59.2658 16.024 59.3538 15.904 59.4178 15.76C59.4818 15.616 59.5138 15.452 59.5138 15.268H61.1458C61.1458 15.668 61.0738 16.016 60.9297 16.312C60.7858 16.608 60.5858 16.856 60.3298 17.056C60.0738 17.248 59.7658 17.396 59.4058 17.5C59.0538 17.596 58.6618 17.644 58.2298 17.644ZM56.7658 13.66H59.4298C59.4298 13.42 59.3978 13.212 59.3338 13.036C59.2778 12.86 59.1978 12.716 59.0938 12.604C58.9898 12.492 58.8618 12.412 58.7098 12.364C58.5658 12.308 58.4018 12.28 58.2178 12.28C57.9138 12.28 57.6578 12.332 57.4498 12.436C57.2498 12.532 57.0938 12.684 56.9818 12.892C56.8778 13.092 56.8058 13.348 56.7658 13.66ZM64.2536 17.644C63.8536 17.644 63.5296 17.572 63.2816 17.428C63.0336 17.284 62.8536 17.092 62.7416 16.852C62.6296 16.604 62.5736 16.332 62.5736 16.036V12.472H61.7936V11.188H62.6336L62.9456 9.388H64.2416V11.188H65.3936V12.472H64.2416V15.76C64.2416 15.952 64.2856 16.1 64.3736 16.204C64.4616 16.3 64.6056 16.348 64.8056 16.348H65.3936V17.452C65.2976 17.484 65.1856 17.512 65.0576 17.536C64.9296 17.568 64.7936 17.592 64.6496 17.608C64.5056 17.632 64.3736 17.644 64.2536 17.644ZM66.7951 17.5V9.268H70.9351C71.4151 9.268 71.8231 9.348 72.1591 9.508C72.5031 9.668 72.7671 9.896 72.9511 10.192C73.1351 10.488 73.2271 10.84 73.2271 11.248C73.2271 11.56 73.1711 11.848 73.0591 12.112C72.9551 12.376 72.8031 12.6 72.6031 12.784C72.4111 12.96 72.1831 13.092 71.9191 13.18V13.228C72.1991 13.292 72.4551 13.404 72.6871 13.564C72.9191 13.724 73.1031 13.944 73.2391 14.224C73.3831 14.496 73.4551 14.844 73.4551 15.268C73.4551 15.812 73.3431 16.248 73.1191 16.576C72.9031 16.904 72.6071 17.14 72.2311 17.284C71.8551 17.428 71.4231 17.5 70.9351 17.5H66.7951ZM67.7431 16.684H70.9951C71.4431 16.684 71.8031 16.572 72.0751 16.348C72.3551 16.116 72.4951 15.728 72.4951 15.184C72.4951 14.84 72.4351 14.556 72.3151 14.332C72.1951 14.108 72.0191 13.944 71.7871 13.84C71.5551 13.736 71.2631 13.684 70.9111 13.684H67.7431V16.684ZM67.7431 12.868H70.7911C71.0791 12.868 71.3311 12.812 71.5471 12.7C71.7711 12.58 71.9471 12.412 72.0751 12.196C72.2031 11.98 72.2671 11.732 72.2671 11.452C72.2671 10.988 72.1391 10.644 71.8831 10.42C71.6351 10.196 71.3031 10.084 70.8871 10.084H67.7431V12.868ZM76.8309 17.644C76.2309 17.644 75.7469 17.492 75.3789 17.188C75.0109 16.884 74.8269 16.352 74.8269 15.592V11.188H75.6909V15.508C75.6909 15.788 75.7269 16.016 75.7989 16.192C75.8709 16.368 75.9709 16.508 76.0989 16.612C76.2269 16.708 76.3749 16.776 76.5429 16.816C76.7189 16.856 76.9069 16.876 77.1069 16.876C77.4269 16.876 77.7269 16.8 78.0069 16.648C78.2949 16.488 78.5269 16.264 78.7029 15.976C78.8789 15.68 78.9669 15.328 78.9669 14.92V11.188H79.8309V17.5H79.1589L79.0629 16.504H78.9789C78.8029 16.792 78.6029 17.02 78.3789 17.188C78.1629 17.348 77.9229 17.464 77.6589 17.536C77.4029 17.608 77.1269 17.644 76.8309 17.644ZM83.6557 17.644C83.1357 17.644 82.6877 17.528 82.3117 17.296C81.9357 17.064 81.6477 16.704 81.4477 16.216C81.2557 15.72 81.1597 15.076 81.1597 14.284C81.1597 13.54 81.2597 12.932 81.4597 12.46C81.6597 11.98 81.9437 11.624 82.3117 11.392C82.6877 11.16 83.1277 11.044 83.6317 11.044C83.9037 11.044 84.1597 11.076 84.3997 11.14C84.6397 11.204 84.8557 11.308 85.0477 11.452C85.2397 11.588 85.4077 11.772 85.5517 12.004H85.6237V8.824H86.4877V17.5H85.8157L85.7197 16.576H85.6357C85.4117 16.936 85.1237 17.204 84.7717 17.38C84.4277 17.556 84.0557 17.644 83.6557 17.644ZM83.7997 16.888C84.2317 16.888 84.5797 16.792 84.8437 16.6C85.1157 16.408 85.3117 16.132 85.4317 15.772C85.5597 15.412 85.6237 14.972 85.6237 14.452V14.236C85.6237 13.74 85.5717 13.332 85.4677 13.012C85.3717 12.692 85.2357 12.444 85.0597 12.268C84.8917 12.092 84.7037 11.972 84.4957 11.908C84.2877 11.836 84.0757 11.8 83.8597 11.8C83.4597 11.8 83.1237 11.884 82.8517 12.052C82.5877 12.212 82.3877 12.468 82.2517 12.82C82.1237 13.172 82.0597 13.632 82.0597 14.2V14.5C82.0597 15.092 82.1317 15.564 82.2757 15.916C82.4197 16.26 82.6197 16.508 82.8757 16.66C83.1397 16.812 83.4477 16.888 83.7997 16.888ZM90.3119 17.644C89.7919 17.644 89.3439 17.528 88.9679 17.296C88.5919 17.064 88.3039 16.704 88.1039 16.216C87.9119 15.72 87.8159 15.076 87.8159 14.284C87.8159 13.54 87.9159 12.932 88.1159 12.46C88.3159 11.98 88.5999 11.624 88.9679 11.392C89.3439 11.16 89.7839 11.044 90.2879 11.044C90.5599 11.044 90.8159 11.076 91.0559 11.14C91.2959 11.204 91.5119 11.308 91.7039 11.452C91.8959 11.588 92.0639 11.772 92.2079 12.004H92.2799V8.824H93.1439V17.5H92.4719L92.3759 16.576H92.2919C92.0679 16.936 91.7799 17.204 91.4279 17.38C91.0839 17.556 90.7119 17.644 90.3119 17.644ZM90.4559 16.888C90.8879 16.888 91.2359 16.792 91.4999 16.6C91.7719 16.408 91.9679 16.132 92.0879 15.772C92.2159 15.412 92.2799 14.972 92.2799 14.452V14.236C92.2799 13.74 92.2279 13.332 92.1239 13.012C92.0279 12.692 91.8919 12.444 91.7159 12.268C91.5479 12.092 91.3599 11.972 91.1519 11.908C90.9439 11.836 90.7319 11.8 90.5159 11.8C90.1159 11.8 89.7799 11.884 89.5079 12.052C89.2439 12.212 89.0439 12.468 88.9079 12.82C88.7799 13.172 88.7159 13.632 88.7159 14.2V14.5C88.7159 15.092 88.7879 15.564 88.9319 15.916C89.0759 16.26 89.2759 16.508 89.5319 16.66C89.7959 16.812 90.1039 16.888 90.4559 16.888ZM95.2522 19.684C95.1002 19.684 94.9642 19.672 94.8442 19.648C94.7322 19.632 94.6402 19.62 94.5682 19.612V18.964H95.0362C95.2442 18.964 95.4442 18.928 95.6362 18.856C95.8282 18.784 96.0082 18.64 96.1762 18.424C96.3442 18.216 96.4962 17.908 96.6322 17.5L94.1842 11.188H95.0962L96.3922 14.548C96.4562 14.7 96.5242 14.892 96.5962 15.124C96.6762 15.348 96.7562 15.58 96.8362 15.82C96.9242 16.052 96.9962 16.26 97.0522 16.444H97.1242C97.1562 16.316 97.1962 16.168 97.2442 16C97.3002 15.832 97.3562 15.66 97.4122 15.484C97.4682 15.308 97.5202 15.14 97.5682 14.98C97.6242 14.82 97.6722 14.68 97.7122 14.56L98.8282 11.188H99.7042L97.5442 17.392C97.4242 17.744 97.2962 18.06 97.1602 18.34C97.0242 18.62 96.8682 18.86 96.6922 19.06C96.5242 19.26 96.3202 19.412 96.0802 19.516C95.8482 19.628 95.5722 19.684 95.2522 19.684Z" fill="#373737"/>
</svg>
